<?xml version="1.0" standalone="no"?>
<!DOCTYPE svg PUBLIC "-//W3C//DTD SVG 20010904//EN"
 "http://www.w3.org/TR/2001/REC-SVG-20010904/DTD/svg10.dtd">
<svg version="1.0" xmlns="http://www.w3.org/2000/svg"
 width="824.000000pt" height="824.000000pt" viewBox="0 0 824.000000 824.000000"
 preserveAspectRatio="xMidYMid meet">
<metadata>
Created by potrace 1.11, written by Peter Selinger 2001-2013
</metadata>
<g transform="translate(0.000000,824.000000) scale(0.100000,-0.100000)"
fill="#000000" stroke="none">
<path d="M1460 4390 c0 -13 -7 -20 -20 -20 -15 0 -20 -7 -20 -25 0 -18 -5 -25
-20 -25 -18 0 -20 -7 -20 -80 0 -73 2 -80 20 -80 13 0 20 -7 20 -20 0 -13 7
-20 20 -20 11 0 20 -7 20 -15 0 -8 9 -15 20 -15 15 0 20 -7 20 -25 0 -22 4
-25 40 -25 29 0 40 -4 40 -15 0 -11 11 -15 40 -15 36 0 40 -2 40 -25 0 -24 3
-25 60 -25 33 0 60 -4 60 -10 0 -5 18 -10 40 -10 38 0 40 -2 40 -30 l0 -30 65
0 c58 0 65 -2 65 -20 0 -18 7 -20 80 -20 73 0 80 -2 80 -20 0 -17 7 -20 40
-20 l40 0 0 -60 c0 -53 -2 -60 -20 -60 -19 0 -20 -7 -20 -95 0 -88 1 -95 20
-95 16 0 20 -7 20 -35 0 -28 4 -35 20 -35 15 0 20 -7 20 -25 0 -18 5 -25 20
-25 15 0 20 -7 20 -25 0 -18 5 -25 20 -25 11 0 20 -7 20 -15 0 -11 11 -15 40
-15 36 0 40 -2 40 -25 l0 -25 100 0 100 0 0 25 c0 23 4 25 40 25 29 0 40 4 40
15 0 8 9 15 20 15 15 0 20 7 20 25 0 18 5 25 20 25 15 0 20 7 20 25 0 18 5 25
20 25 11 0 20 7 20 15 0 8 9 15 20 15 19 0 20 7 20 115 l0 115 120 0 c100 0
120 -2 120 -15 0 -13 34 -15 245 -15 211 0 245 2 245 15 0 8 9 15 20 15 16 0
20 7 20 30 0 23 4 30 20 30 18 0 20 7 20 70 0 63 -2 70 -20 70 -16 0 -20 7
-20 30 0 23 -4 30 -20 30 -11 0 -20 5 -20 10 0 6 -102 10 -285 10 l-285 0 0
25 0 25 -160 0 c-136 0 -160 2 -160 15 0 13 -20 15 -120 15 l-120 0 0 25 c0
25 -1 25 -80 25 -64 0 -80 3 -80 15 0 12 -16 15 -80 15 -73 0 -80 2 -80 20 0
18 -7 20 -60 20 -53 0 -60 2 -60 20 0 18 -7 20 -65 20 -63 0 -65 1 -65 25 0
23 -4 25 -40 25 -36 0 -40 3 -40 25 0 23 -4 25 -40 25 -22 0 -40 5 -40 10 0 6
-18 10 -40 10 -36 0 -40 3 -40 25 0 23 -4 25 -40 25 -33 0 -40 3 -40 20 0 18
-7 20 -60 20 -53 0 -60 -2 -60 -20z"/>
<path d="M6570 4390 c0 -17 -7 -20 -40 -20 -36 0 -40 -2 -40 -25 0 -22 -4 -25
-40 -25 -22 0 -40 -4 -40 -10 0 -5 -18 -10 -40 -10 -36 0 -40 -2 -40 -25 0
-22 -4 -25 -40 -25 -36 0 -40 -2 -40 -25 0 -24 -3 -25 -60 -25 -53 0 -60 -2
-60 -20 0 -18 -7 -20 -60 -20 -53 0 -60 -2 -60 -20 0 -18 -7 -20 -80 -20 -64
0 -80 -3 -80 -15 0 -12 -16 -15 -80 -15 -79 0 -80 0 -80 -25 l0 -25 -120 0
c-100 0 -120 -2 -120 -15 0 -13 -24 -15 -160 -15 l-160 0 0 -25 0 -25 -285 0
c-183 0 -285 -4 -285 -10 0 -5 -9 -10 -20 -10 -16 0 -20 -7 -20 -30 0 -23 -4
-30 -20 -30 -18 0 -20 -7 -20 -70 0 -63 2 -70 20 -70 16 0 20 -7 20 -30 0 -23
4 -30 20 -30 11 0 20 -7 20 -15 0 -13 33 -15 240 -15 207 0 240 2 240 15 0 13
21 15 125 15 l125 0 0 -95 c0 -88 1 -95 20 -95 16 0 20 -7 20 -35 0 -28 4 -35
20 -35 15 0 20 -7 20 -25 0 -18 5 -25 20 -25 15 0 20 -7 20 -25 0 -18 5 -25
20 -25 11 0 20 -7 20 -15 0 -11 11 -15 40 -15 36 0 40 -2 40 -25 l0 -25 100 0
100 0 0 25 c0 23 4 25 40 25 29 0 40 4 40 15 0 8 9 15 20 15 15 0 20 7 20 25
0 18 5 25 20 25 15 0 20 7 20 25 0 18 5 25 20 25 16 0 20 7 20 35 0 28 4 35
20 35 19 0 20 7 20 125 0 118 -1 125 -20 125 -16 0 -20 7 -20 30 0 28 2 30 40
30 33 0 40 3 40 20 0 18 7 20 80 20 73 0 80 2 80 20 0 18 7 20 60 20 l60 0 0
30 0 30 60 0 c33 0 60 4 60 10 0 6 18 10 40 10 36 0 40 3 40 25 0 23 4 25 40
25 29 0 40 4 40 15 0 11 12 15 45 15 41 0 45 2 45 25 0 18 5 25 20 25 11 0 20
7 20 15 0 8 9 15 20 15 13 0 20 7 20 20 0 13 7 20 20 20 18 0 20 7 20 80 0 73
-2 80 -20 80 -15 0 -20 7 -20 25 0 18 -5 25 -20 25 -13 0 -20 7 -20 20 0 18
-7 20 -65 20 -58 0 -65 -2 -65 -20z"/>
<path d="M3640 2595 l0 -25 -165 0 c-140 0 -165 -2 -165 -15 0 -12 -16 -15
-80 -15 -79 0 -80 0 -80 -25 0 -22 -4 -25 -40 -25 -36 0 -40 -2 -40 -25 0 -22
-4 -25 -40 -25 l-40 0 0 -80 c0 -73 2 -80 20 -80 11 0 20 -4 20 -10 0 -5 18
-10 40 -10 36 0 40 -2 40 -25 l0 -25 100 0 c82 0 100 -3 100 -15 0 -13 92 -15
765 -15 673 0 765 2 765 15 0 12 18 15 100 15 l100 0 0 25 c0 23 4 25 45 25
25 0 45 5 45 10 0 6 9 10 20 10 18 0 20 7 20 80 l0 80 -40 0 c-36 0 -40 3 -40
25 0 23 -4 25 -45 25 -41 0 -45 2 -45 25 0 25 -1 25 -80 25 -64 0 -80 3 -80
15 0 13 -24 15 -160 15 l-160 0 0 25 0 25 -440 0 -440 0 0 -25z"/>
</g>
</svg>
