<?xml version="1.0" standalone="no"?>
<!DOCTYPE svg PUBLIC "-//W3C//DTD SVG 20010904//EN"
 "http://www.w3.org/TR/2001/REC-SVG-20010904/DTD/svg10.dtd">
<svg version="1.0" xmlns="http://www.w3.org/2000/svg"
 width="700.000000pt" height="700.000000pt" viewBox="0 0 700.000000 700.000000"
 preserveAspectRatio="xMidYMid meet">
<metadata>
Created by potrace 1.11, written by Peter Selinger 2001-2013
</metadata>
<g transform="translate(0.000000,700.000000) scale(0.100000,-0.100000)"
fill="#000000" stroke="none">
<path d="M893 3360 c-18 -10 -40 -31 -49 -46 -24 -35 -22 -114 2 -148 60 -84
416 -248 718 -332 50 -13 97 -27 104 -29 9 -3 5 -16 -13 -45 -84 -134 -60
-316 57 -426 74 -69 125 -89 233 -89 108 0 159 20 233 89 86 81 124 207 99
330 l-8 39 58 -7 c126 -14 355 -26 498 -26 131 0 154 3 182 20 70 42 84 151
28 210 -38 40 -87 47 -345 54 -654 18 -1239 156 -1625 385 -79 46 -122 52
-172 21z"/>
<path d="M5986 3373 c-10 -3 -44 -21 -75 -41 -130 -83 -381 -183 -608 -242
-323 -84 -636 -126 -1043 -139 -259 -8 -278 -12 -317 -70 -39 -57 -27 -137 27
-186 19 -18 39 -20 161 -23 126 -4 382 8 537 24 l62 7 -7 -34 c-5 -19 -8 -66
-7 -104 2 -170 139 -312 312 -323 282 -19 457 279 311 527 -11 18 -19 35 -17
36 2 1 41 12 88 25 160 42 345 111 495 185 211 103 274 164 258 247 -16 86
-91 133 -177 111z"/>
<path d="M3145 1590 c-388 -27 -656 -93 -729 -180 -56 -68 -17 -149 91 -188
154 -56 368 -72 985 -72 506 0 724 10 878 41 180 35 261 102 228 187 -35 93
-226 159 -568 198 -159 18 -708 26 -885 14z"/>
</g>
</svg>
